HIERARCHY
ROOT Hips
{
	OFFSET 0.0000 0.0000 0.0000
	CHANNELS 6 Xposition Yposition Zposition Zrotation Xrotation Yrotation
	JOINT Ab
	{
		OFFSET -0.0000 8.1305 -0.0000
		CHANNELS 3 Zrotation Xrotation Yrotation
		JOINT Chest
		{
			OFFSET -0.0000 26.2902 -0.0000
			CHANNELS 3 Zrotation Xrotation Yrotation
			JOINT Neck
			{
				OFFSET -0.0000 26.2902 0.0000
				CHANNELS 3 Zrotation Xrotation Yrotation
				JOINT Head
				{
					OFFSET -0.0000 10.8167 0.0000
					CHANNELS 3 Zrotation Xrotation Yrotation
					End Site
					{
						OFFSET -0.0000 16.7167 0.0000
					}
				}
			}
			JOINT LeftCollar
			{
				OFFSET -0.0000 26.2902 0.0000
				CHANNELS 3 Zrotation Xrotation Yrotation
				JOINT LeftShoulder
				{
					OFFSET 19.6667 -0.0000 0.0000
					CHANNELS 3 Zrotation Xrotation Yrotation
					JOINT LeftElbow
					{
						OFFSET 27.2190 0.0000 0.0000
						CHANNELS 3 Zrotation Xrotation Yrotation
						JOINT LeftWrist
						{
							OFFSET 30.7431 0.0000 0.0000
							CHANNELS 3 Zrotation Xrotation Yrotation
							End Site
							{
								OFFSET 0.0000 -14.7500 0.0000
							}
						}
					}
				}
			}
			JOINT RightCollar
			{
				OFFSET -0.0000 26.2902 0.0000
				CHANNELS 3 Zrotation Xrotation Yrotation
				JOINT RightShoulder
				{
					OFFSET -19.6667 0.0000 0.0000
					CHANNELS 3 Zrotation Xrotation Yrotation
					JOINT RightElbow
					{
						OFFSET -27.2190 0.0000 0.0000
						CHANNELS 3 Zrotation Xrotation Yrotation
						JOINT RightWrist
						{
							OFFSET -30.7431 0.0000 0.0000
							CHANNELS 3 Zrotation Xrotation Yrotation
							End Site
							{
								OFFSET -0.0000 -14.7500 0.0000
							}
						}
					}
				}
			}
		}
	}
	JOINT LeftHip
	{
		OFFSET 11.8000 0.0000 0.0000
		CHANNELS 3 Zrotation Xrotation Yrotation
		JOINT LeftKnee
		{
			OFFSET -0.0000 -39.7832 0.0000
			CHANNELS 3 Zrotation Xrotation Yrotation
			JOINT LeftAnkle
			{
				OFFSET -0.0000 -41.7317 0.0000
				CHANNELS 3 Zrotation Xrotation Yrotation
				End Site
				{
					OFFSET -0.0000 -4.9167 16.7167
				}
			}
		}
	}
	JOINT RightHip
	{
		OFFSET -11.8000 0.0000 0.0000
		CHANNELS 3 Zrotation Xrotation Yrotation
		JOINT RightKnee
		{
			OFFSET -0.0000 -39.7832 0.0000
			CHANNELS 3 Zrotation Xrotation Yrotation
			JOINT RightAnkle
			{
				OFFSET -0.0000 -41.7317 0.0000
				CHANNELS 3 Zrotation Xrotation Yrotation
				End Site
				{
					OFFSET -0.0000 -4.9167 16.7167
				}
			}
		}
	}
}
MOTION
Frames: 23
Frame Time: 0.010000
-10.5154 88.5565 124.2328 359.7665 331.1318 183.3093 3.4193 354.2437 355.0190 3.3899 5.6462 354.6850 7.9255 323.2586 10.2168 348.0795 14.7232 9.1558 338.3120 356.5582 18.0516 8.6073 47.5061 290.5048 22.8162 330.6613 250.3867 110.8738 359.7775 21.0674 22.3660 357.1018 345.4634 43.4780 26.6342 333.2272 358.0148 356.7341 80.7830 268.4458 353.3529 20.0794 3.1906 3.9748 4.5186 0.2452 14.6419 12.4651 333.0226 358.0430 16.7705 344.0890 312.4105 350.6795 24.1290 45.3099 357.7627 351.5749 326.5913 313.5748 
-10.1362 88.3731 122.4359 359.0610 331.0610 182.6396 3.0651 354.2593 355.4590 3.5800 5.6375 355.1341 7.8177 322.6613 10.1039 347.8908 15.0082 9.0449 338.1810 356.4341 18.6509 8.7360 48.4546 291.0663 21.2490 332.1242 251.0574 109.8823 358.4862 17.8970 22.5947 357.0065 345.1914 43.5676 27.3461 335.0364 356.4006 355.5388 80.8425 266.7218 354.2526 19.3661 2.4130 2.1564 3.5712 0.9352 20.0329 11.3184 337.4463 357.6454 15.8525 345.0910 314.2253 351.2999 22.3720 44.1459 358.8943 349.5501 327.4791 313.6352 
-9.8000 88.0896 120.6824 358.2792 331.1114 181.9490 2.7134 354.4356 355.9507 3.6953 5.5844 355.6432 7.3518 322.1440 9.7713 348.1630 15.1278 8.8094 338.7250 356.5685 18.2183 6.8775 50.1733 293.5434 20.2367 333.4980 251.8979 109.0203 357.5151 16.1153 22.8690 356.9629 345.1310 43.6292 28.1468 336.6825 354.7441 354.0903 81.2770 265.7382 354.7240 17.4634 1.6024 359.8325 1.6055 0.8441 26.7035 10.7340 341.0601 358.6505 13.8734 345.7285 315.6277 350.2904 20.1137 45.3439 2.4581 350.2733 323.9676 311.6808 
-9.3930 87.7274 118.8918 357.6481 331.3316 181.1961 2.3872 354.7691 356.6013 3.8900 5.4985 356.3111 6.7234 321.8607 9.2960 348.5111 14.9928 8.4586 338.7430 356.5119 18.6953 6.9886 51.1940 294.3796 19.6073 334.6833 253.3613 108.4212 357.7257 14.7760 22.9872 356.8956 344.6797 43.7072 29.2377 338.8301 353.0079 352.5024 81.6149 264.6128 355.6721 15.9208 0.9557 357.8110 0.5091 0.4443 33.1753 11.0943 342.4960 358.3461 10.9737 346.3345 316.8250 350.7012 19.1502 45.9770 6.7442 348.1235 324.2549 308.3763 
-8.8722 87.2755 117.1711 357.4690 331.6335 180.6158 2.3906 355.1655 357.1874 4.0823 5.4713 356.8962 5.7530 321.9579 8.6056 349.2163 14.2780 7.9482 338.8255 356.4932 18.8053 3.9806 51.6700 298.3670 18.4595 337.2661 254.0387 109.0812 359.4543 15.4660 23.0291 356.8190 344.2166 43.7731 31.4695 341.3125 350.7180 350.0949 81.7431 263.5676 356.6942 12.6627 0.8110 355.4791 359.9812 0.1903 39.9853 9.4852 344.0693 358.5362 9.7723 347.1291 317.6809 352.8048 20.7174 46.2829 7.1175 345.5058 326.2321 305.6963 
-8.3364 86.8617 115.5599 357.5185 331.6299 179.8722 2.6051 355.4309 357.9393 4.2457 5.3379 357.6441 4.8656 322.2487 8.0449 349.8939 13.2707 7.5546 338.9996 356.3947 20.0523 5.2135 52.4140 298.0282 17.8772 338.0667 256.4054 107.7726 358.2101 14.1057 23.1402 356.7190 343.7896 43.2421 34.0575 344.0016 348.1727 347.5702 82.3210 262.2309 358.4855 9.0581 0.7480 352.8382 0.1889 0.7378 47.1479 6.0298 345.3662 357.6392 9.1349 348.5329 318.0375 354.7017 21.3960 46.8896 7.3065 344.0579 326.3433 303.6107 
-8.0357 86.5078 113.9678 357.1577 331.3260 178.6618 2.9002 355.3664 358.8873 3.9866 5.1414 358.5947 3.5731 323.1360 7.2123 350.7270 11.5937 6.9515 339.3749 356.3443 20.8410 6.5751 53.8617 297.8542 17.9952 338.2928 259.2077 107.4030 357.2163 13.0214 23.2074 356.6533 343.7199 42.6291 36.6961 346.2634 345.3303 344.6191 83.3873 261.2865 0.4834 5.0855 359.8212 349.2891 0.3798 1.7322 54.6980 4.4399 339.9838 356.6863 8.5756 349.4538 318.1827 355.3717 20.7617 47.6798 8.5932 342.5357 327.3868 303.1068 
-7.5877 86.0974 112.5817 357.3733 330.6858 177.7775 3.4575 355.2599 359.8455 3.9245 4.6274 359.5431 2.6409 324.3593 6.4824 350.9314 9.8598 6.3744 339.5794 356.3203 20.7189 3.2288 54.3697 302.8068 17.0582 341.2235 260.5367 109.1570 357.6225 13.0971 23.3150 356.5561 343.1607 41.1914 39.4844 349.4391 342.4648 341.7220 84.5426 260.4652 1.8414 2.1080 359.8569 344.9829 0.5367 1.7388 62.5168 2.4671 343.8123 354.7585 8.3989 351.2017 318.0016 356.8237 20.2928 48.1649 8.4527 342.0697 326.7852 302.9617 
-7.1256 85.6763 111.1406 357.5168 330.3428 176.5978 3.8137 355.5324 0.8545 3.9958 3.9441 0.5673 1.8450 325.7735 5.9196 351.1309 8.2402 5.9686 340.0065 356.4072 20.4376 358.8115 55.2281 308.8652 15.5892 343.7827 261.9498 110.3927 356.9112 12.1834 23.9347 356.3148 342.5726 37.9610 42.6225 353.3786 339.5271 338.5519 85.9747 259.6556 2.2742 358.2461 0.0676 340.9435 0.8270 359.7701 69.8523 4.4515 341.4521 354.0708 8.7899 353.0454 318.2318 358.3571 19.6982 48.6001 8.6315 341.5828 326.1120 303.0412 
-6.6372 85.2791 109.6865 357.8808 329.7093 175.6106 4.2003 355.5386 1.8581 4.2666 3.2060 1.5796 1.1122 326.6073 5.3260 351.0745 7.5594 5.5453 339.8424 356.3831 20.1766 355.6348 55.5456 314.4556 13.6640 346.8117 263.2522 112.5118 356.5816 10.1000 24.7310 356.0189 341.9382 33.9250 45.0776 358.0499 336.6523 335.5069 87.1265 258.7021 1.8905 355.6794 0.8383 336.5880 0.6192 350.8526 76.3332 14.3373 341.1169 353.2212 8.6100 354.9458 318.3239 359.9282 19.4458 48.9261 8.4221 341.0955 325.4531 303.0997 
-6.1981 84.9229 108.1386 357.8323 329.2255 174.4690 4.6563 355.7547 2.3672 3.9169 2.2461 2.1215 0.0229 326.9720 4.8560 351.9081 7.7483 5.4234 339.5738 356.3140 20.3329 353.8662 55.8630 319.1697 11.9355 348.7976 264.8665 112.5743 355.9187 7.7170 25.8763 355.7313 341.8562 29.3266 45.9893 3.0902 334.7159 333.6372 88.9614 257.3444 1.9667 352.1825 1.4125 332.1908 1.1063 337.5758 81.6196 27.9038 346.5178 351.9183 8.0518 356.2201 318.8022 1.2867 19.3220 48.9823 8.2624 340.7388 324.6921 303.2355 
-5.7754 84.6819 106.5012 357.7108 328.7169 173.4952 4.5849 355.6061 2.8990 4.1777 1.9056 2.6558 359.6490 326.8706 4.8794 351.9950 8.2873 5.6100 338.9769 356.1210 20.6876 351.8711 55.1159 324.3427 9.8221 351.7458 265.9630 114.0753 355.1912 6.0084 26.5959 355.6382 342.2179 24.9227 45.6628 8.3851 333.5690 332.0084 91.4459 256.2722 2.2410 349.5944 1.9735 327.5062 2.2762 302.5011 86.1638 62.7208 344.9572 352.1427 8.5339 357.0628 319.6074 2.4835 19.5066 48.5248 7.9483 340.2874 324.0483 303.3316 
-5.3974 84.5754 104.7516 357.0419 328.2924 172.5120 3.8784 355.3678 3.2316 4.5473 1.6667 3.0106 359.0599 327.0622 4.7139 352.3785 8.2320 5.5717 338.4113 355.9488 20.9566 350.2840 54.0701 329.3227 7.3955 354.7576 266.7786 115.3961 353.9740 4.8573 26.9095 355.6874 342.6721 21.8592 44.2796 13.1865 333.0289 330.6091 94.1548 256.4145 1.1861 346.6597 2.0371 322.8629 3.1688 235.1926 85.5828 130.8372 344.4765 351.4650 8.0206 357.0191 320.6701 3.0060 19.4954 47.9159 8.1970 339.8618 323.5202 303.3591 
-5.0531 84.5135 102.9244 356.0680 328.2568 171.5335 2.8278 355.4361 3.4449 4.8908 1.5531 3.2660 357.5367 326.8855 3.9880 353.9529 7.8974 5.1582 337.9942 355.7259 21.7863 350.1468 53.1279 332.3857 5.0775 357.1239 267.5794 115.9181 352.4675 4.6562 26.9446 355.8230 343.2107 19.4889 42.8039 18.0918 332.8459 329.4789 96.5341 255.8735 1.3742 345.4527 1.6452 318.6703 4.5883 208.1416 83.0511 159.2447 346.0362 350.9754 7.1680 356.4057 322.2846 3.2717 19.4656 46.9871 8.7072 339.5716 322.8832 303.1936 
-4.7829 84.5509 100.9939 355.2704 328.3824 171.0818 2.2810 355.7638 3.3853 4.6325 0.8509 3.2662 357.9249 327.4934 4.2561 353.1812 7.9589 5.3468 337.9846 355.7784 21.2775 346.8846 51.8382 339.1876 2.5721 359.9491 268.0168 115.7129 351.1172 4.0554 27.0675 355.9607 344.0120 17.8623 42.0779 21.7410 332.3213 327.5663 98.3830 256.7763 0.7037 344.5320 0.8979 314.7072 5.1459 199.0851 80.6097 169.9657 346.2500 351.2752 6.0380 355.4989 324.4313 2.5755 18.8932 45.7291 9.7976 339.3638 322.4953 303.3355 
-4.4244 84.6177 98.8255 354.1910 328.5300 170.2515 1.1836 355.4816 3.5396 4.9117 1.1451 3.4437 355.4599 327.7839 3.2588 355.7999 7.0893 4.8907 338.2634 355.8658 21.4120 344.0938 50.3467 344.5497 0.1910 2.2555 268.4160 114.2231 349.5134 2.4507 26.6350 356.2548 344.9378 16.2610 41.6562 25.8002 331.4726 325.6547 99.6548 255.6239 0.2907 343.8441 0.3498 310.9983 6.2779 194.6955 78.8404 173.7540 345.8729 350.1358 6.9622 354.6937 326.9353 2.8493 18.4694 43.7067 10.4772 339.2882 322.4491 303.7482 
-4.1204 84.8321 96.7066 353.1797 328.6542 169.7517 0.3700 355.5674 3.6001 4.5595 0.8163 3.5539 354.5100 327.8689 2.7424 356.5483 7.2641 4.5413 339.0097 356.0651 21.4120 342.2197 50.2160 348.4583 358.3573 3.5098 269.4707 112.4488 347.2351 0.1844 26.4531 356.4745 345.7487 14.7189 41.7550 29.2221 330.0644 323.2623 100.2498 254.9837 0.4753 344.0006 359.4151 307.2981 6.2349 194.7329 77.7283 173.9571 347.4705 349.3447 6.7901 353.8829 329.4472 1.7182 16.7163 41.9350 12.6766 339.5927 322.2503 304.0561 
-3.8034 85.0487 94.4746 352.3540 329.0225 169.4173 359.7793 355.8320 3.6692 3.9121 0.5624 3.6576 353.6244 327.7107 2.2862 357.7115 7.7626 4.2921 339.7023 356.2399 21.2290 340.3469 48.8908 352.7695 356.2840 5.7966 269.8744 113.2502 346.7063 359.8860 26.2297 356.7202 346.7562 13.2374 42.1990 32.1384 328.1692 320.7197 100.3804 254.2141 359.3523 342.4981 358.5151 304.1373 6.0363 195.6400 77.5172 172.4629 347.8209 348.8007 7.1064 353.2980 332.4820 0.7829 14.9157 39.6844 14.4255 340.3272 322.0249 304.7679 
-3.4830 85.3472 92.1384 351.4892 329.2855 169.1196 359.1147 355.9825 3.7621 3.2440 0.0215 3.7936 353.0745 327.9040 1.8555 358.3373 8.4687 3.9460 340.4271 356.3989 21.2256 339.4873 48.2626 356.0996 354.2753 7.6905 270.1531 114.5098 346.4533 359.0697 25.8411 356.9928 347.7304 11.6802 42.9340 34.9126 325.8510 318.3274 99.7440 252.9669 359.1301 341.7191 357.3667 301.1420 5.2541 198.3635 77.9195 168.3275 348.1680 347.4258 7.9559 352.8460 335.8611 0.3066 13.0884 36.5563 16.0745 341.4214 322.1476 305.4382 
-3.1436 85.7351 89.6988 350.4355 329.6353 168.4461 358.0651 356.1692 4.0697 2.8787 359.5679 4.1466 353.5609 327.1504 2.0142 357.6095 10.4542 4.1111 341.3644 356.6021 21.3836 338.1812 47.7394 359.1187 352.3687 9.3594 270.9225 113.8247 345.4647 357.1154 24.9669 357.2685 348.0254 9.6370 44.2135 38.9230 322.8740 315.8201 98.1222 252.3792 358.7703 341.1322 356.4689 298.7337 4.8790 203.8662 79.2353 162.8005 347.8437 347.3905 7.6801 352.4948 339.2339 0.6885 11.3939 33.2953 17.1524 343.0924 322.1828 306.0091 
-2.8378 86.1656 87.1639 349.4907 329.9436 168.0712 357.1452 356.2793 4.3853 2.4117 359.2050 4.4963 352.4748 326.7158 1.1415 358.4340 11.6631 3.4899 341.8825 356.6624 21.4542 338.3299 48.3330 1.0194 350.9898 10.1315 271.3132 113.5213 344.0447 355.6482 24.3911 357.4520 348.4901 8.2601 44.8330 40.9304 320.0886 313.8684 96.9386 251.1207 358.4005 338.8110 354.9971 296.6690 3.7118 212.6023 80.9716 153.5335 348.1245 347.1650 7.2175 352.2308 342.8647 2.9972 10.6575 29.2794 15.5020 345.8003 322.6312 307.5059 
-2.5112 86.6260 84.5486 348.5260 330.2855 167.5262 356.4092 356.0765 4.6292 1.6039 359.4402 4.7615 351.2426 326.3371 0.1848 359.6110 12.5035 2.8147 342.5067 356.7731 21.5049 338.3417 48.0635 2.7458 349.8606 10.9655 271.4103 114.2545 344.0371 356.0652 23.7183 357.6426 349.0228 7.1441 45.4608 42.8788 317.8570 312.4727 96.0695 249.2243 358.4873 337.2646 353.8440 295.0066 2.8046 226.9667 82.6967 137.8719 350.1802 346.4167 7.2454 351.9819 346.8076 3.0212 8.3834 25.0443 16.8928 348.2631 324.4720 308.9340 
-2.1728 87.1136 81.8437 347.7433 330.7392 167.1446 355.6111 356.0155 5.0272 1.0119 359.7545 5.1852 349.9073 325.1844 359.1298 0.8595 14.0879 2.1147 342.7743 356.7789 21.6028 338.8666 47.8214 3.8986 348.7618 11.9918 271.4313 114.3032 344.2344 356.5262 23.0589 357.7366 348.8497 5.3114 46.3377 45.3628 315.6882 311.0331 95.0046 248.1024 358.0812 336.1504 352.6977 293.9819 1.9251 255.2346 84.2316 109.5359 348.6728 346.4138 6.0488 351.6908 350.7899 5.8902 7.7536 20.5610 14.5190 352.3260 325.5163 310.7939 
